<svg xmlns="http://www.w3.org/2000/svg" width="1254" height="1254" viewBox="0 0 1254 1254" version="1.1">
	<path d="M 454 158.444 C 436.014 161.019, 419.533 165.792, 406.500 172.200 C 400.322 175.238, 385 185.059, 385 185.982 C 385 186.267, 394.563 186.557, 406.250 186.627 C 443.636 186.852, 467.626 191.695, 487.402 203.009 C 505.335 213.270, 534.126 238.756, 546.134 255 C 555.721 267.968, 555.689 268.761, 545.958 259.455 C 526.887 241.217, 505.883 226.505, 481.873 214.564 C 453.479 200.443, 430.702 195.602, 392.500 195.566 C 375.905 195.551, 370.081 195.906, 364.735 197.262 C 357.761 199.031, 342 205.753, 342 206.958 C 342 207.332, 346.227 208.386, 351.392 209.302 C 370.971 212.771, 395.284 223.147, 421 239.008 C 480.669 275.812, 486.099 278.043, 534.082 285.479 C 563.161 289.985, 570.871 291.939, 583.500 297.999 C 598.544 305.219, 607.020 313.879, 610.642 325.731 C 612.193 330.807, 612.653 342.752, 611.499 348.003 C 610.819 351.100, 610.730 351.003, 607.534 343.649 C 602.011 330.945, 593.523 321.172, 580.958 313.051 C 569.275 305.500, 555.440 301.355, 529.037 297.494 C 489.406 291.700, 471.626 284.526, 427.500 256.527 C 409.565 245.147, 374.927 227.395, 356.460 220.118 C 340.125 213.682, 332.162 211.826, 318.476 211.266 C 307.550 210.819, 305.806 210.998, 299.374 213.235 C 280.576 219.773, 269.007 233.583, 268.997 249.500 L 268.993 256.500 264.493 258.351 C 258.305 260.895, 250.409 268.261, 247.297 274.392 C 243.053 282.753, 243.083 290.145, 247.414 303.832 C 250.365 313.157, 251.004 316.698, 251.022 323.832 C 251.039 330.373, 251.543 333.604, 253.079 337 C 256.289 344.101, 263.869 351, 268.460 351 C 269.784 351, 269.981 349.527, 269.760 341.250 C 269.617 335.887, 269.882 327.953, 270.348 323.617 L 271.196 315.734 274.186 318.724 L 277.177 321.715 277.396 340.607 C 277.605 358.600, 277.796 360.262, 281.405 375.500 C 286.895 398.683, 287.338 395.311, 270.131 461.220 C 265.484 479.017, 265.608 481.103, 271.462 483.548 C 273.562 484.426, 278.255 485, 283.333 485 C 290.314 485, 292.175 485.350, 294.365 487.073 C 297.679 489.680, 297.897 494.856, 294.926 500.400 C 290.829 508.043, 294.999 512.273, 307.811 513.471 C 316.197 514.256, 321.797 515.801, 316.718 515.930 C 312.693 516.031, 307.332 518.511, 306.080 520.850 C 303.424 525.813, 305.808 531, 312.814 535.500 C 319.514 539.804, 320.395 542.185, 318.417 550.653 C 316.226 560.029, 317.632 566.561, 323.124 572.519 C 333.764 584.061, 351.855 584.714, 390.904 574.963 C 408.776 570.500, 411.046 570.275, 413.245 572.750 C 414.101 573.712, 417.115 582.044, 419.945 591.265 C 422.774 600.486, 426.913 612.411, 429.143 617.765 C 441.021 646.285, 443.706 656.727, 442.604 670.107 C 441.140 687.874, 434.359 700.945, 416.307 720.798 C 412.158 725.362, 408.532 728.865, 408.250 728.584 C 406.929 727.263, 413.306 713.991, 423.800 696.223 C 426.813 691.120, 429.032 686.698, 428.730 686.396 C 427.949 685.616, 411.005 692.607, 394 700.726 C 345.605 723.830, 313.813 748.036, 293.165 777.500 C 267.975 813.446, 254.295 857.372, 256.416 895.496 C 258.252 928.471, 269.765 955.330, 291.930 978.339 C 303.204 990.043, 315.529 999.204, 338.576 1013.009 C 348.984 1019.243, 360.200 1026.159, 363.500 1028.377 C 373.247 1034.928, 382.936 1045.471, 392.350 1059.772 C 399.510 1070.649, 401.716 1073.276, 404.778 1074.569 C 438.329 1088.749, 523.298 1123.288, 526.381 1124 C 532.445 1125.400, 543.805 1125.201, 550.040 1123.585 C 553.043 1122.807, 567.200 1119.175, 581.500 1115.514 C 595.800 1111.853, 611.775 1107.734, 617 1106.361 C 622.225 1104.987, 638.875 1100.722, 654 1096.882 C 685.909 1088.780, 731.435 1077.153, 748 1072.874 C 754.325 1071.240, 785.825 1063.183, 818 1054.968 C 894.839 1035.350, 889.864 1036.816, 893.672 1032.661 C 897.640 1028.331, 898.989 1023.597, 898.989 1014 C 898.989 1004.117, 897.672 999.797, 893.557 996.184 C 887.277 990.670, 887.071 990.698, 834.438 1004.037 C 524.753 1082.523, 547.282 1077, 536.801 1077 C 531.642 1077, 524.963 1076.351, 521.960 1075.558 C 517.552 1074.394, 474.558 1057.677, 406.588 1030.701 C 402.237 1028.973, 397.174 1026.144, 395.338 1024.412 C 392.485 1021.722, 392 1020.589, 392 1016.621 C 392 1009.629, 395.372 1003.733, 405.323 993.324 C 434.968 962.314, 497.467 925.878, 567.500 898.776 C 643.459 869.380, 744.065 843.757, 820.722 834.283 L 843.235 831.500 842.594 823.744 C 838.161 770.162, 805.162 723.423, 760.171 707.003 C 743.629 700.966, 733.996 699.594, 708 699.570 C 681.779 699.547, 674.849 700.433, 653 706.610 C 634.887 711.730, 617.229 718.930, 594.500 730.464 C 556.789 749.602, 519.125 773.801, 443.500 827.484 C 410.533 850.885, 386.189 867.359, 373 875.191 C 364.019 880.525, 347.206 888.539, 346.494 887.827 C 345.588 886.922, 381.484 854.856, 408 832.883 C 510.729 747.755, 587.228 703.866, 653.867 691.824 C 674.265 688.138, 704.230 688.870, 727.399 693.621 C 731.194 694.399, 734.520 694.814, 734.791 694.543 C 735.516 693.818, 731.669 690.752, 720.944 683.507 C 704.611 672.474, 687.504 665.553, 667.500 661.884 C 650.970 658.852, 641.547 656.323, 633.038 652.636 C 610.475 642.858, 587.725 621.136, 579.884 601.884 C 578.061 597.409, 577.585 593.713, 577.062 580 C 576.523 565.859, 576.130 562.928, 574.308 559.500 C 570.194 551.756, 565.377 548.443, 551 543.472 C 527.602 535.381, 515.342 524.561, 510.009 507.295 C 507.976 500.712, 507.398 486.348, 508.891 479.500 C 509.499 476.707, 509.631 476.883, 510.801 482.056 C 513.684 494.811, 522.202 507.071, 532.990 513.994 C 535.605 515.672, 543.539 519.346, 550.622 522.159 C 557.705 524.972, 565.753 528.711, 568.506 530.468 C 575.447 534.898, 582.462 543.026, 585.187 549.798 C 587.299 555.044, 587.483 557.020, 587.491 574.500 C 587.499 592.317, 587.644 593.792, 589.808 598.186 C 593.633 605.950, 601.298 611.651, 621.549 621.790 C 651.369 636.721, 686.564 648.223, 737 659.522 C 789.145 671.203, 818.914 682.247, 861.221 705.608 C 895.702 724.647, 918.011 733.551, 941.500 737.648 C 955.153 740.030, 980.065 739.090, 994.207 735.659 C 1010.864 731.619, 1026.764 725.071, 1038.283 717.507 C 1049.465 710.165, 1050.773 708.042, 1042.882 710.040 C 1034.637 712.128, 1000.862 712.428, 985.961 710.545 C 956.705 706.848, 914.910 696.568, 874.120 683.035 L 850.500 675.199 868.872 675.099 C 898.971 674.937, 919.633 670.567, 942.855 659.452 C 966.008 648.371, 980.899 637.491, 1008.355 611.599 C 1033.476 587.908, 1041.011 582.492, 1054.500 578.433 C 1057.800 577.440, 1060.903 576.286, 1061.395 575.869 C 1063.185 574.352, 1056.868 573.822, 1049.235 574.849 C 1031.686 577.211, 1017.599 583.415, 983.500 603.800 C 971.950 610.705, 957.539 618.718, 951.477 621.605 C 930.319 631.684, 902.083 639.491, 873.500 643.167 C 857.125 645.273, 816.804 644.751, 796.895 642.175 C 706.747 630.512, 659.687 612.390, 630.238 578 C 621.836 568.188, 620.763 566.069, 626.357 570.339 C 644.626 584.284, 664.640 591.174, 687 591.216 C 705.379 591.250, 722.272 587.203, 750.500 576 C 793.109 559.090, 817.139 556.057, 860 562.179 C 882.466 565.388, 908.029 565.223, 924.034 561.765 C 942.640 557.746, 962.747 548.883, 977.100 538.373 C 985.771 532.024, 999.013 519.014, 1005.470 510.500 C 1023.009 487.375, 1032.004 460.486, 1031.997 431.199 C 1031.988 395.264, 1019.743 365.617, 994.536 340.500 C 982.588 328.595, 972.959 321.783, 957.753 314.480 C 938.984 305.465, 918.468 301.223, 899 302.333 C 857.247 304.712, 822.087 324.014, 792.489 360.803 C 784.616 370.588, 777.088 381.538, 749.729 423 C 731.182 451.106, 716.595 466.833, 700 476.614 C 690.345 482.305, 683.524 484.857, 673.063 486.691 C 658.703 489.210, 651 486.551, 651 479.075 C 651 470.922, 658.830 464.447, 672.913 460.955 C 686.863 457.495, 695.519 452.069, 702.068 442.677 C 707.879 434.345, 709.358 429.677, 709.442 419.407 C 709.514 410.693, 709.647 410.166, 712.647 406.749 C 730.561 386.346, 737.336 358.280, 728.954 339.194 C 726.527 333.668, 717.447 324.796, 711.847 322.480 L 707.497 320.681 707.499 308.091 C 707.500 296.011, 707.371 295.227, 704.315 288.777 C 697 273.335, 683.052 264.458, 662.967 262.463 L 656.434 261.814 655.238 270.021 C 654.121 277.689, 651.035 286.156, 647.856 290.279 C 646.664 291.825, 646.467 290.777, 646.350 282.279 C 646.028 259.001, 638.291 236.889, 623.656 217.419 C 621.199 214.151, 614.984 207.417, 609.844 202.455 C 586.949 180.352, 556.228 165.802, 519 159.431 C 505.925 157.193, 466.879 156.600, 454 158.444 M 279 288.416 C 279 292.143, 281.627 297.995, 284.803 301.342 C 293.889 310.915, 310.049 311.746, 335 303.923 C 347.098 300.130, 349.592 299.681, 359.018 299.595 C 368.963 299.505, 369.895 299.677, 376.159 302.759 C 380.797 305.041, 385.670 308.813, 392.408 315.335 C 408.663 331.070, 418.376 335.548, 436 335.429 C 447.661 335.351, 454.352 333.595, 472.057 325.966 C 481.222 322.018, 481.353 321.916, 476.500 322.516 C 473.750 322.856, 467.225 324.020, 462 325.102 C 433.492 331.007, 423.190 327.991, 400.158 306.994 C 386.192 294.262, 381.430 291.026, 373.068 288.585 C 362.615 285.534, 351.544 286.869, 330.103 293.767 C 319.594 297.148, 317.463 297.500, 307.500 297.500 C 294.927 297.500, 290.308 295.983, 283.128 289.496 L 279 285.767 279 288.416 M 351.716 324.398 C 355.078 327.510, 361.398 335.106, 365.762 341.278 C 378.470 359.250, 388.144 367.224, 404 372.799 C 410.860 375.210, 412.823 375.436, 427 375.441 C 441.246 375.446, 443.795 375.152, 458.500 371.804 C 479.291 367.070, 488.126 366.334, 498.368 368.481 C 509.191 370.749, 514.449 373.290, 529.397 383.477 C 551.683 398.664, 562.079 402.376, 582.500 402.439 C 593.177 402.472, 596.751 402.086, 602.500 400.281 C 613.997 396.672, 625.852 388.466, 632.138 379.766 C 633.777 377.497, 632.885 377.878, 626.892 382.007 C 608.948 394.368, 587.027 397.734, 567.746 391.088 C 558.175 387.789, 549.173 382.509, 535.127 371.954 C 527.773 366.427, 519.062 360.546, 515.771 358.884 C 498.371 350.101, 479.900 349.734, 449.500 357.567 C 436.138 361.011, 418.371 361.882, 408.565 359.575 C 395.806 356.573, 389.830 352.793, 374.804 338.221 C 364.881 328.598, 359.647 324.285, 355.804 322.566 C 345.762 318.073, 345.171 318.338, 351.716 324.398 M 873.298 361.134 C 868.787 361.534, 860.839 363.020, 855.635 364.438 C 832.613 370.710, 814.118 381.747, 797.468 399.150 C 787.448 409.624, 782.287 416.513, 764.997 442.500 C 742.257 476.675, 735.406 485.615, 722.055 498.528 C 709.570 510.605, 697.412 517.504, 682.209 521.139 C 670.925 523.837, 652.424 523.333, 641.231 520.023 C 619.382 513.561, 608.964 505.421, 588.733 479 C 572.447 457.732, 561.704 450.988, 544.145 451.009 L 536.500 451.019 544.500 454.933 C 554.457 459.806, 562.415 467.560, 569.934 479.715 C 584.452 503.189, 588.502 508.722, 597.951 518 C 617.420 537.116, 639.579 547.135, 668.877 550.069 C 689.483 552.133, 707.616 549.580, 744.364 539.444 C 755.439 536.390, 769.171 533.128, 774.880 532.195 L 785.261 530.500 784.728 518.819 C 784.435 512.395, 784.425 506.908, 784.707 506.626 C 784.989 506.344, 786.923 507.189, 789.005 508.503 C 797.695 513.989, 823.261 526.060, 833.281 529.408 C 849.266 534.750, 859.870 536.315, 876 535.714 C 892.545 535.098, 901.613 532.870, 915.723 525.957 C 934.907 516.557, 949.385 502.042, 959.070 482.500 C 966.254 468.005, 968.242 459.502, 968.305 443 C 968.346 432.120, 967.935 427.971, 966.186 421.622 C 959.955 398.998, 945.487 381.076, 925 370.598 C 908.500 362.160, 893.253 359.369, 873.298 361.134 M 308.386 383.047 C 311.260 386.463, 313.729 393.843, 314.667 401.825 C 315.565 409.460, 316.793 410.327, 325.963 409.796 C 332.095 409.441, 334.981 408.660, 341.024 405.720 C 345.136 403.720, 349.850 400.948, 351.500 399.561 L 354.500 397.039 348.500 399.092 C 341.971 401.325, 324.401 402.746, 322.196 401.219 C 321.479 400.722, 320.203 397.657, 319.360 394.408 C 317.467 387.112, 314.843 382.705, 311.478 381.172 C 306.713 379.001, 305.567 379.697, 308.386 383.047 M 447.054 401.870 C 455.607 407.391, 459.084 412.485, 464.524 427.461 C 468.460 438.294, 479.410 445.250, 492.529 445.250 C 501.171 445.250, 507.136 443.672, 524.353 436.831 C 540.265 430.508, 548.818 428.098, 556 427.914 L 560.500 427.799 556.500 426.815 C 550.089 425.237, 536.571 426.591, 523.500 430.122 C 513.911 432.711, 509.491 433.376, 501.500 433.431 C 492.505 433.493, 490.988 433.230, 486.410 430.814 C 480.532 427.713, 476.619 423.573, 472.104 415.681 C 466.211 405.382, 456.271 399, 446.123 399 L 442.608 399 447.054 401.870 M 1079.707 530.554 C 1074.540 532.205, 1068.205 537.770, 1065.469 543.059 C 1063.274 547.306, 1062.528 555.568, 1063.887 560.596 C 1064.496 562.849, 1066.326 566.531, 1067.955 568.779 C 1076.793 580.980, 1094.017 582.105, 1104.884 571.191 C 1116.920 559.104, 1113.410 539.469, 1097.768 531.380 C 1093.427 529.135, 1085.308 528.764, 1079.707 530.554 M 1113.670 616.623 C 1106.704 618.764, 1100.581 625.200, 1098.401 632.674 C 1093.330 650.065, 1107.888 666.191, 1125.662 662.871 C 1135.871 660.964, 1143.067 653.973, 1145.166 643.922 C 1147.566 632.427, 1140.673 620.462, 1129.447 616.637 C 1123.656 614.663, 1120.059 614.660, 1113.670 616.623 M 1043.500 635.960 C 1024.955 638.128, 1010.305 643.373, 985.930 656.570 C 977.366 661.206, 969.855 665, 969.239 665 C 968.622 665, 967.803 665.510, 967.418 666.133 C 966.909 666.957, 968.324 667.073, 972.609 666.559 C 981.499 665.493, 992.515 662.508, 1013.500 655.479 C 1030.929 649.642, 1046.341 645.337, 1056.500 643.471 C 1058.700 643.066, 1066.800 642.437, 1074.500 642.071 C 1087.025 641.477, 1088.186 641.273, 1085.523 640.142 C 1076.954 636.501, 1056.386 634.454, 1043.500 635.960 M 1071.759 689.423 C 1066.286 691.376, 1063.322 693.573, 1060.035 698.110 C 1046.193 717.219, 1065.913 742.388, 1087.766 733.504 C 1093.101 731.336, 1099.644 724.032, 1101.109 718.610 C 1102.460 713.614, 1101.734 705.320, 1099.582 701.159 C 1097.095 696.349, 1091.253 691.274, 1086.235 689.564 C 1080.704 687.680, 1076.751 687.641, 1071.759 689.423 M 382.272 731.250 C 351.140 761.286, 315.983 816.249, 304.027 853.574 C 291.988 891.158, 298.742 921.768, 321.617 933.291 C 337.289 941.186, 357.086 938.971, 382 926.533 C 397.728 918.682, 416.832 905.698, 450.500 879.977 C 486.462 852.504, 524.141 826, 527.236 826 C 527.839 826, 528.102 825.768, 527.819 825.485 C 526.364 824.030, 496.248 838.282, 475.332 850.323 C 463.215 857.299, 455.460 862.184, 414.500 888.647 C 373.034 915.436, 354.534 922.536, 338.623 917.769 C 332.598 915.964, 325.754 908.823, 323.031 901.500 C 321.004 896.050, 320.844 894.217, 321.280 881.500 C 321.655 870.587, 322.351 865.299, 324.437 857.521 C 332.835 826.200, 351.363 787.678, 381.081 739.750 C 386.452 731.087, 390.608 724, 390.317 724 C 390.025 724, 386.405 727.263, 382.272 731.250 M 808.500 861.446 C 774.950 869.855, 725.225 882.394, 698 889.310 C 602.602 913.545, 540.416 928.925, 531 930.611 C 524.233 931.823, 518.502 933.710, 511.082 937.170 C 497.527 943.489, 471 957.922, 471 958.977 C 471 959.428, 482.813 963.754, 497.250 968.589 C 522.949 977.195, 523.700 977.380, 533 977.370 C 542.112 977.360, 547.502 976.109, 665 946.724 C 732.375 929.874, 807.750 911.087, 832.500 904.976 C 857.250 898.864, 878.850 893.082, 880.499 892.126 C 882.149 891.170, 884.504 888.614, 885.733 886.444 C 887.713 882.949, 887.969 881.076, 887.984 869.984 C 887.997 859.789, 887.662 856.823, 886.176 853.984 C 884.068 849.958, 877.169 845.959, 872.538 846.078 C 870.867 846.122, 842.050 853.037, 808.500 861.446 M 874.500 919.726 C 873.400 919.997, 829.975 930.769, 778 943.663 C 639.927 977.918, 581.363 992.340, 553 999.075 C 546.049 1000.726, 527.915 1000.725, 522 999.074 C 519.525 998.383, 502.528 992.008, 484.229 984.909 C 465.930 977.809, 450.405 972.002, 449.729 972.005 C 447.357 972.014, 407.998 1001.213, 408.001 1002.962 C 408.001 1003.258, 420.714 1008.629, 436.251 1014.898 C 451.788 1021.167, 478.450 1031.954, 495.500 1038.869 L 526.500 1051.442 537.500 1051.371 C 547.945 1051.303, 550.166 1050.869, 581.500 1042.780 C 622.231 1032.265, 811.968 983.996, 855.378 973.106 C 889.637 964.511, 890.276 964.242, 894.097 956.790 C 895.632 953.797, 896 950.923, 896 941.926 C 896 932.224, 895.708 930.253, 893.758 926.783 C 890.228 920.502, 882.633 917.719, 874.500 919.726" stroke="none" fill="#000000" fill-rule="evenodd"/>
</svg>